0
SECTION
2
ENTITIES
0
LWPOLYLINE
8
MARK
90
180
70
1
10
12.0000
20
0.0000
10
11.9927
20
0.4188
10
11.9708
20
0.8371
10
11.9343
20
1.2543
10
11.8832
20
1.6701
10
11.8177
20
2.0838
10
11.7378
20
2.4949
10
11.6435
20
2.9031
10
11.5351
20
3.3076
10
11.4127
20
3.7082
10
11.2763
20
4.1042
10
11.1262
20
4.4953
10
10.9625
20
4.8808
10
10.7855
20
5.2605
10
10.5954
20
5.6337
10
10.3923
20
6.0000
10
10.1766
20
6.3590
10
9.9485
20
6.7103
10
9.7082
20
7.0534
10
9.4561
20
7.3879
10
9.1925
20
7.7135
10
8.9177
20
8.0296
10
8.6321
20
8.3359
10
8.3359
20
8.6321
10
8.0296
20
8.9177
10
7.7135
20
9.1925
10
7.3879
20
9.4561
10
7.0534
20
9.7082
10
6.7103
20
9.9485
10
6.3590
20
10.1766
10
6.0000
20
10.3923
10
5.6337
20
10.5954
10
5.2605
20
10.7855
10
4.8808
20
10.9625
10
4.4953
20
11.1262
10
4.1042
20
11.2763
10
3.7082
20
11.4127
10
3.3076
20
11.5351
10
2.9031
20
11.6435
10
2.4949
20
11.7378
10
2.0838
20
11.8177
10
1.6701
20
11.8832
10
1.2543
20
11.9343
10
0.8371
20
11.9708
10
0.4188
20
11.9927
10
0.0000
20
12.0000
10
-0.4188
20
11.9927
10
-0.8371
20
11.9708
10
-1.2543
20
11.9343
10
-1.6701
20
11.8832
10
-2.0838
20
11.8177
10
-2.4949
20
11.7378
10
-2.9031
20
11.6435
10
-3.3076
20
11.5351
10
-3.7082
20
11.4127
10
-4.1042
20
11.2763
10
-4.4953
20
11.1262
10
-4.8808
20
10.9625
10
-5.2605
20
10.7855
10
-5.6337
20
10.5954
10
-6.0000
20
10.3923
10
-6.3590
20
10.1766
10
-6.7103
20
9.9485
10
-7.0534
20
9.7082
10
-7.3879
20
9.4561
10
-7.7135
20
9.1925
10
-8.0296
20
8.9177
10
-8.3359
20
8.6321
10
-8.6321
20
8.3359
10
-8.9177
20
8.0296
10
-9.1925
20
7.7135
10
-9.4561
20
7.3879
10
-9.7082
20
7.0534
10
-9.9485
20
6.7103
10
-10.1766
20
6.3590
10
-10.3923
20
6.0000
10
-10.5954
20
5.6337
10
-10.7855
20
5.2605
10
-10.9625
20
4.8808
10
-11.1262
20
4.4953
10
-11.2763
20
4.1042
10
-11.4127
20
3.7082
10
-11.5351
20
3.3076
10
-11.6435
20
2.9031
10
-11.7378
20
2.4949
10
-11.8177
20
2.0838
10
-11.8832
20
1.6701
10
-11.9343
20
1.2543
10
-11.9708
20
0.8371
10
-11.9927
20
0.4188
10
-12.0000
20
0.0000
10
-11.9927
20
-0.4188
10
-11.9708
20
-0.8371
10
-11.9343
20
-1.2543
10
-11.8832
20
-1.6701
10
-11.8177
20
-2.0838
10
-11.7378
20
-2.4949
10
-11.6435
20
-2.9031
10
-11.5351
20
-3.3076
10
-11.4127
20
-3.7082
10
-11.2763
20
-4.1042
10
-11.1262
20
-4.4953
10
-10.9625
20
-4.8808
10
-10.7855
20
-5.2605
10
-10.5954
20
-5.6337
10
-10.3923
20
-6.0000
10
-10.1766
20
-6.3590
10
-9.9485
20
-6.7103
10
-9.7082
20
-7.0534
10
-9.4561
20
-7.3879
10
-9.1925
20
-7.7135
10
-8.9177
20
-8.0296
10
-8.6321
20
-8.3359
10
-8.3359
20
-8.6321
10
-8.0296
20
-8.9177
10
-7.7135
20
-9.1925
10
-7.3879
20
-9.4561
10
-7.0534
20
-9.7082
10
-6.7103
20
-9.9485
10
-6.3590
20
-10.1766
10
-6.0000
20
-10.3923
10
-5.6337
20
-10.5954
10
-5.2605
20
-10.7855
10
-4.8808
20
-10.9625
10
-4.4953
20
-11.1262
10
-4.1042
20
-11.2763
10
-3.7082
20
-11.4127
10
-3.3076
20
-11.5351
10
-2.9031
20
-11.6435
10
-2.4949
20
-11.7378
10
-2.0838
20
-11.8177
10
-1.6701
20
-11.8832
10
-1.2543
20
-11.9343
10
-0.8371
20
-11.9708
10
-0.4188
20
-11.9927
10
-0.0000
20
-12.0000
10
0.4188
20
-11.9927
10
0.8371
20
-11.9708
10
1.2543
20
-11.9343
10
1.6701
20
-11.8832
10
2.0838
20
-11.8177
10
2.4949
20
-11.7378
10
2.9031
20
-11.6435
10
3.3076
20
-11.5351
10
3.7082
20
-11.4127
10
4.1042
20
-11.2763
10
4.4953
20
-11.1262
10
4.8808
20
-10.9625
10
5.2605
20
-10.7855
10
5.6337
20
-10.5954
10
6.0000
20
-10.3923
10
6.3590
20
-10.1766
10
6.7103
20
-9.9485
10
7.0534
20
-9.7082
10
7.3879
20
-9.4561
10
7.7135
20
-9.1925
10
8.0296
20
-8.9177
10
8.3359
20
-8.6321
10
8.6321
20
-8.3359
10
8.9177
20
-8.0296
10
9.1925
20
-7.7135
10
9.4561
20
-7.3879
10
9.7082
20
-7.0534
10
9.9485
20
-6.7103
10
10.1766
20
-6.3590
10
10.3923
20
-6.0000
10
10.5954
20
-5.6337
10
10.7855
20
-5.2605
10
10.9625
20
-4.8808
10
11.1262
20
-4.4953
10
11.2763
20
-4.1042
10
11.4127
20
-3.7082
10
11.5351
20
-3.3076
10
11.6435
20
-2.9031
10
11.7378
20
-2.4949
10
11.8177
20
-2.0838
10
11.8832
20
-1.6701
10
11.9343
20
-1.2543
10
11.9708
20
-0.8371
10
11.9927
20
-0.4188
0
LWPOLYLINE
8
MARK
90
180
70
1
10
9.9102
20
0.0000
10
9.9042
20
0.3459
10
9.8861
20
0.6913
10
9.8559
20
1.0359
10
9.8138
20
1.3792
10
9.7597
20
1.7209
10
9.6937
20
2.0605
10
9.6158
20
2.3975
10
9.5263
20
2.7316
10
9.4252
20
3.0624
10
9.3126
20
3.3895
10
9.1886
20
3.7124
10
9.0534
20
4.0309
10
8.9072
20
4.3444
10
8.7502
20
4.6526
10
8.5825
20
4.9551
10
8.4043
20
5.2516
10
8.2159
20
5.5417
10
8.0175
20
5.8251
10
7.8094
20
6.1013
10
7.5917
20
6.3702
10
7.3647
20
6.6312
10
7.1288
20
6.8842
10
6.8842
20
7.1288
10
6.6312
20
7.3647
10
6.3702
20
7.5917
10
6.1013
20
7.8094
10
5.8251
20
8.0175
10
5.5417
20
8.2159
10
5.2516
20
8.4043
10
4.9551
20
8.5825
10
4.6526
20
8.7502
10
4.3444
20
8.9072
10
4.0309
20
9.0534
10
3.7124
20
9.1886
10
3.3895
20
9.3126
10
3.0624
20
9.4252
10
2.7316
20
9.5263
10
2.3975
20
9.6158
10
2.0605
20
9.6937
10
1.7209
20
9.7597
10
1.3792
20
9.8138
10
1.0359
20
9.8559
10
0.6913
20
9.8861
10
0.3459
20
9.9042
10
0.0000
20
9.9102
10
-0.3459
20
9.9042
10
-0.6913
20
9.8861
10
-1.0359
20
9.8559
10
-1.3792
20
9.8138
10
-1.7209
20
9.7597
10
-2.0605
20
9.6937
10
-2.3975
20
9.6158
10
-2.7316
20
9.5263
10
-3.0624
20
9.4252
10
-3.3895
20
9.3126
10
-3.7124
20
9.1886
10
-4.0309
20
9.0534
10
-4.3444
20
8.9072
10
-4.6526
20
8.7502
10
-4.9551
20
8.5825
10
-5.2516
20
8.4043
10
-5.5417
20
8.2159
10
-5.8251
20
8.0175
10
-6.1013
20
7.8094
10
-6.3702
20
7.5917
10
-6.6312
20
7.3647
10
-6.8842
20
7.1288
10
-7.1288
20
6.8842
10
-7.3647
20
6.6312
10
-7.5917
20
6.3702
10
-7.8094
20
6.1013
10
-8.0175
20
5.8251
10
-8.2159
20
5.5417
10
-8.4043
20
5.2516
10
-8.5825
20
4.9551
10
-8.7502
20
4.6526
10
-8.9072
20
4.3444
10
-9.0534
20
4.0309
10
-9.1886
20
3.7124
10
-9.3126
20
3.3895
10
-9.4252
20
3.0624
10
-9.5263
20
2.7316
10
-9.6158
20
2.3975
10
-9.6937
20
2.0605
10
-9.7597
20
1.7209
10
-9.8138
20
1.3792
10
-9.8559
20
1.0359
10
-9.8861
20
0.6913
10
-9.9042
20
0.3459
10
-9.9102
20
0.0000
10
-9.9042
20
-0.3459
10
-9.8861
20
-0.6913
10
-9.8559
20
-1.0359
10
-9.8138
20
-1.3792
10
-9.7597
20
-1.7209
10
-9.6937
20
-2.0605
10
-9.6158
20
-2.3975
10
-9.5263
20
-2.7316
10
-9.4252
20
-3.0624
10
-9.3126
20
-3.3895
10
-9.1886
20
-3.7124
10
-9.0534
20
-4.0309
10
-8.9072
20
-4.3444
10
-8.7502
20
-4.6526
10
-8.5825
20
-4.9551
10
-8.4043
20
-5.2516
10
-8.2159
20
-5.5417
10
-8.0175
20
-5.8251
10
-7.8094
20
-6.1013
10
-7.5917
20
-6.3702
10
-7.3647
20
-6.6312
10
-7.1288
20
-6.8842
10
-6.8842
20
-7.1288
10
-6.6312
20
-7.3647
10
-6.3702
20
-7.5917
10
-6.1013
20
-7.8094
10
-5.8251
20
-8.0175
10
-5.5417
20
-8.2159
10
-5.2516
20
-8.4043
10
-4.9551
20
-8.5825
10
-4.6526
20
-8.7502
10
-4.3444
20
-8.9072
10
-4.0309
20
-9.0534
10
-3.7124
20
-9.1886
10
-3.3895
20
-9.3126
10
-3.0624
20
-9.4252
10
-2.7316
20
-9.5263
10
-2.3975
20
-9.6158
10
-2.0605
20
-9.6937
10
-1.7209
20
-9.7597
10
-1.3792
20
-9.8138
10
-1.0359
20
-9.8559
10
-0.6913
20
-9.8861
10
-0.3459
20
-9.9042
10
-0.0000
20
-9.9102
10
0.3459
20
-9.9042
10
0.6913
20
-9.8861
10
1.0359
20
-9.8559
10
1.3792
20
-9.8138
10
1.7209
20
-9.7597
10
2.0605
20
-9.6937
10
2.3975
20
-9.6158
10
2.7316
20
-9.5263
10
3.0624
20
-9.4252
10
3.3895
20
-9.3126
10
3.7124
20
-9.1886
10
4.0309
20
-9.0534
10
4.3444
20
-8.9072
10
4.6526
20
-8.7502
10
4.9551
20
-8.5825
10
5.2516
20
-8.4043
10
5.5417
20
-8.2159
10
5.8251
20
-8.0175
10
6.1013
20
-7.8094
10
6.3702
20
-7.5917
10
6.6312
20
-7.3647
10
6.8842
20
-7.1288
10
7.1288
20
-6.8842
10
7.3647
20
-6.6312
10
7.5917
20
-6.3702
10
7.8094
20
-6.1013
10
8.0175
20
-5.8251
10
8.2159
20
-5.5417
10
8.4043
20
-5.2516
10
8.5825
20
-4.9551
10
8.7502
20
-4.6526
10
8.9072
20
-4.3444
10
9.0534
20
-4.0309
10
9.1886
20
-3.7124
10
9.3126
20
-3.3895
10
9.4252
20
-3.0624
10
9.5263
20
-2.7316
10
9.6158
20
-2.3975
10
9.6937
20
-2.0605
10
9.7597
20
-1.7209
10
9.8138
20
-1.3792
10
9.8559
20
-1.0359
10
9.8861
20
-0.6913
10
9.9042
20
-0.3459
0
LWPOLYLINE
8
MARK
90
48
70
1
10
-8.3474
20
-3.5201
10
-8.3474
20
3.5359
10
-2.4744
20
3.5359
10
-2.2857
20
3.5310
10
-2.1053
20
3.5162
10
-1.9333
20
3.4914
10
-1.7695
20
3.4568
10
-1.6141
20
3.4122
10
-1.4670
20
3.3578
10
-1.3283
20
3.2935
10
-1.1978
20
3.2193
10
-1.0755
20
3.1369
10
-0.9611
20
3.0484
10
-0.8545
20
2.9535
10
-0.7558
20
2.8524
10
-0.6650
20
2.7450
10
-0.5821
20
2.6314
10
-0.5071
20
2.5115
10
-0.4400
20
2.3853
10
-0.3807
20
2.2545
10
-0.3294
20
2.1208
10
-0.2859
20
1.9842
10
-0.2504
20
1.8446
10
-0.2227
20
1.7021
10
-0.2030
20
1.5566
10
-0.1911
20
1.4083
10
-0.1872
20
1.2570
10
-0.1922
20
1.0912
10
-0.2071
20
0.9292
10
-0.2319
20
0.7711
10
-0.2666
20
0.6167
10
-0.3113
20
0.4662
10
-0.3659
20
0.3194
10
-0.4304
20
0.1764
10
-0.5049
20
0.0373
10
-0.5893
20
-0.0964
10
-0.6838
20
-0.2229
10
-0.7882
20
-0.3422
10
-0.9027
20
-0.4543
10
-1.0272
20
-0.5592
10
-1.1618
20
-0.6569
10
-1.3063
20
-0.7475
10
-1.4609
20
-0.8308
10
-0.0183
20
-3.5201
10
-2.3756
20
-3.5201
10
-3.5460
20
-1.1731
10
-6.2576
20
-1.1731
10
-6.2576
20
-3.5201
0
LWPOLYLINE
8
MARK
90
43
70
1
10
-6.2576
20
0.3710
10
-3.1564
20
0.3710
10
-3.0647
20
0.3746
10
-2.9777
20
0.3852
10
-2.8954
20
0.4029
10
-2.8178
20
0.4276
10
-2.7449
20
0.4595
10
-2.6768
20
0.4984
10
-2.6133
20
0.5444
10
-2.5546
20
0.5975
10
-2.5018
20
0.6564
10
-2.4560
20
0.7199
10
-2.4172
20
0.7881
10
-2.3855
20
0.8609
10
-2.3609
20
0.9383
10
-2.3433
20
1.0203
10
-2.3327
20
1.1070
10
-2.3292
20
1.1983
10
-2.3308
20
1.2603
10
-2.3355
20
1.3200
10
-2.3435
20
1.3773
10
-2.3546
20
1.4323
10
-2.3689
20
1.4848
10
-2.3864
20
1.5350
10
-2.4071
20
1.5828
10
-2.4309
20
1.6282
10
-2.4576
20
1.6711
10
-2.4869
20
1.7113
10
-2.5188
20
1.7488
10
-2.5532
20
1.7837
10
-2.5902
20
1.8158
10
-2.6298
20
1.8453
10
-2.6719
20
1.8721
10
-2.7166
20
1.8962
10
-2.7637
20
1.9175
10
-2.8131
20
1.9360
10
-2.8647
20
1.9516
10
-2.9185
20
1.9644
10
-2.9746
20
1.9744
10
-3.0330
20
1.9815
10
-3.0936
20
1.9858
10
-3.1564
20
1.9872
10
-6.2576
20
1.9872
0
LWPOLYLINE
8
MARK
90
12
70
1
10
0.9096
20
-3.5201
10
0.9096
20
3.5359
10
8.2653
20
3.5359
10
8.2653
20
1.9872
10
3.0049
20
1.9872
10
3.0049
20
0.8020
10
7.6105
20
0.8020
10
7.6105
20
-0.6965
10
3.0049
20
-0.6965
10
3.0049
20
-1.9713
10
8.3474
20
-1.9713
10
8.3474
20
-3.5201
0
ENDSEC
0
EOF
