<svg xmlns="http://www.w3.org/2000/svg" viewBox="0 0 1024 1024" width="1024" height="1024"><rect width="1024" height="1024" fill="#0C100F"/><path d="M288 192 H432 V832 H288 A96 96 0 0 1 192 736 V288 A96 96 0 0 1 288 192 Z" fill="#1EE3A5"/><rect x="438" y="198" width="68" height="68" rx="14" fill="#1EE3A5"/><rect x="438" y="278" width="68" height="68" rx="14" fill="#1EE3A5"/><rect x="438" y="358" width="68" height="68" rx="14" fill="#1EE3A5"/><rect x="438" y="438" width="68" height="68" rx="14" fill="#1EE3A5"/><rect x="438" y="518" width="68" height="68" rx="14" fill="#1EE3A5"/><rect x="438" y="598" width="68" height="68" rx="14" fill="#1EE3A5"/><rect x="438" y="678" width="68" height="68" rx="14" fill="#1EE3A5"/><rect x="438" y="758" width="68" height="68" rx="14" fill="#1EE3A5"/><rect x="518" y="278" width="68" height="68" rx="14" fill="#1EE3A5"/><rect x="518" y="438" width="68" height="68" rx="14" fill="#1EE3A5"/><rect x="518" y="598" width="68" height="68" rx="14" fill="#1EE3A5"/><rect x="518" y="758" width="68" height="68" rx="14" fill="#1EE3A5"/><rect x="598" y="198" width="68" height="68" rx="14" fill="#1EE3A5"/><rect x="598" y="358" width="68" height="68" rx="14" fill="#1EE3A5"/><rect x="598" y="518" width="68" height="68" rx="14" fill="#1EE3A5"/><rect x="598" y="678" width="68" height="68" rx="14" fill="#1EE3A5"/><rect x="678" y="278" width="68" height="68" rx="14" fill="#1EE3A5"/><rect x="678" y="438" width="68" height="68" rx="14" fill="#1EE3A5"/><rect x="678" y="598" width="68" height="68" rx="14" fill="#1EE3A5"/><rect x="678" y="758" width="68" height="68" rx="14" fill="#1EE3A5"/></svg>