<svg xmlns="http://www.w3.org/2000/svg" viewBox="0 0 1024 1024" width="1024" height="1024"><rect width="1024" height="1024" fill="#0C100F"/><path d="M288 192 H432 V832 H288 A96 96 0 0 1 192 736 V288 A96 96 0 0 1 288 192 Z" fill="#1EE3A5"/><rect x="431.5" y="191.5" width="81" height="81" rx="0" fill="#1EE3A5"/><rect x="431.5" y="271.5" width="81" height="81" rx="0" fill="#1EE3A5"/><rect x="431.5" y="351.5" width="81" height="81" rx="0" fill="#1EE3A5"/><rect x="431.5" y="431.5" width="81" height="81" rx="0" fill="#1EE3A5"/><rect x="431.5" y="511.5" width="81" height="81" rx="0" fill="#1EE3A5"/><rect x="431.5" y="591.5" width="81" height="81" rx="0" fill="#1EE3A5"/><rect x="431.5" y="671.5" width="81" height="81" rx="0" fill="#1EE3A5"/><rect x="431.5" y="751.5" width="81" height="81" rx="0" fill="#1EE3A5"/><rect x="511.5" y="271.5" width="81" height="81" rx="0" fill="#1EE3A5"/><rect x="511.5" y="431.5" width="81" height="81" rx="0" fill="#1EE3A5"/><rect x="511.5" y="591.5" width="81" height="81" rx="0" fill="#1EE3A5"/><rect x="511.5" y="751.5" width="81" height="81" rx="0" fill="#1EE3A5"/><rect x="591.5" y="191.5" width="81" height="81" rx="0" fill="#1EE3A5"/><rect x="591.5" y="351.5" width="81" height="81" rx="0" fill="#1EE3A5"/><rect x="591.5" y="511.5" width="81" height="81" rx="0" fill="#1EE3A5"/><rect x="591.5" y="671.5" width="81" height="81" rx="0" fill="#1EE3A5"/><rect x="671.5" y="271.5" width="81" height="81" rx="0" fill="#1EE3A5"/><rect x="671.5" y="431.5" width="81" height="81" rx="0" fill="#1EE3A5"/><rect x="671.5" y="591.5" width="81" height="81" rx="0" fill="#1EE3A5"/><rect x="671.5" y="751.5" width="81" height="81" rx="0" fill="#1EE3A5"/></svg>